<svg width="53" height="48" viewBox="0 0 53 48" fill="none" xmlns="http://www.w3.org/2000/svg">
<path d="M40.9472 25.9545C40.689 25.7236 40.3823 25.5405 40.0446 25.4155C39.707 25.2905 39.345 25.2262 38.9795 25.2262C38.614 25.2262 38.252 25.2905 37.9144 25.4155C37.5767 25.5405 37.27 25.7236 37.0118 25.9545L32.5753 29.9144C30.5185 29.3679 26.6805 28.1258 24.248 25.9545C21.8154 23.7833 20.4238 20.3575 19.8115 18.5217L24.248 14.5618C24.5066 14.3313 24.7119 14.0575 24.8519 13.7561C24.9919 13.4547 25.064 13.1317 25.064 12.8054C25.064 12.4791 24.9919 12.1561 24.8519 11.8547C24.7119 11.5533 24.5066 11.2796 24.248 11.049L13.1151 1.11205C12.8569 0.881151 12.5501 0.697968 12.2125 0.572984C11.8748 0.447999 11.5129 0.383667 11.1474 0.383667C10.7818 0.383667 10.4199 0.447999 10.0823 0.572984C9.74461 0.697968 9.43789 0.881151 9.17964 1.11205L1.63157 7.84934C0.573945 8.79335 -0.021663 10.0901 0.00060269 11.4142C0.0646166 14.9518 1.11389 27.2389 11.9629 36.9225C22.8118 46.6061 36.5776 47.5402 40.5437 47.5998H40.6216C42.0911 47.5998 43.48 47.0831 44.532 46.144L52.0801 39.4067C52.3388 39.1762 52.544 38.9025 52.684 38.6011C52.824 38.2997 52.8961 37.9766 52.8961 37.6504C52.8961 37.3241 52.824 37.0011 52.684 36.6997C52.544 36.3983 52.3388 36.1245 52.0801 35.894L40.9472 25.9545ZM40.5938 42.6288C37.1203 42.5766 25.236 41.7444 15.8983 33.4073C6.53002 25.0453 5.62269 14.4003 5.56703 11.3621L11.1474 6.38114L18.3448 12.8054L14.7461 16.0175C14.4189 16.3093 14.1784 16.6693 14.0462 17.0648C13.9141 17.4604 13.8944 17.8791 13.989 18.2832C14.0558 18.5689 15.6896 25.3434 20.3097 29.4673C24.9298 33.5911 32.5197 35.0494 32.8397 35.109C33.2921 35.1958 33.7617 35.1797 34.2053 35.0621C34.6489 34.9444 35.0522 34.729 35.378 34.4358L38.9795 31.2236L46.1769 37.6479L40.5938 42.6288Z" fill="#FDF7F7"/>
</svg>
